<svg xmlns="http://www.w3.org/2000/svg" width="1200" height="675" viewBox="0 0 1200 675" role="img" aria-label="How to Make GIFs from Videos - EasyGIFMaker">
  <defs>
    <linearGradient id="g" x1="0" y1="0" x2="1" y2="1">
      <stop offset="0" stop-color="#e8f1ff"/>
      <stop offset="1" stop-color="#f4f7ff"/>
    </linearGradient>
  </defs>
  <rect width="1200" height="675" fill="url(#g)"/>
  <g transform="translate(80,80)">
    <rect x="0" y="0" width="1040" height="515" rx="24" fill="#ffffff" stroke="#cfe0ff"/>
    <rect x="24" y="24" width="992" height="467" rx="16" fill="#f0f6ff" stroke="#d7e6ff"/>
    <g transform="translate(60,80)">
      <rect x="0" y="0" width="360" height="240" rx="12" fill="#dbeafe"/>
      <polygon points="150,60 270,120 150,180" fill="#1d4ed8" opacity="0.9"/>
      <rect x="420" y="8" width="500" height="24" rx="12" fill="#dbeafe"/>
      <rect x="420" y="52" width="460" height="18" rx="9" fill="#e5edff"/>
      <rect x="420" y="84" width="480" height="18" rx="9" fill="#e5edff"/>
      <rect x="420" y="116" width="350" height="18" rx="9" fill="#e5edff"/>
      <rect x="420" y="168" width="300" height="36" rx="18" fill="#1d4ed8"/>
    </g>
  </g>
  <g transform="translate(80,625)">
    <rect x="0" y="-40" width="400" height="40" rx="20" fill="#1d4ed8"/>
    <text x="200" y="-14" text-anchor="middle" font-family="Inter, ui-sans-serif" font-weight="700" font-size="22" fill="#ffffff">How to Make GIFs from Videos</text>
  </g>
</svg>
